<?xml version="1.0" encoding="utf-8"?>
<!-- Generator: Adobe Illustrator 15.1.0, SVG Export Plug-In . SVG Version: 6.00 Build 0)  -->
<!DOCTYPE svg PUBLIC "-//W3C//DTD SVG 1.1//EN" "http://www.w3.org/Graphics/SVG/1.1/DTD/svg11.dtd">
<svg version="1.1" id="Calque_1" xmlns="http://www.w3.org/2000/svg" xmlns:xlink="http://www.w3.org/1999/xlink" x="0px" y="0px"
	 width="25.021px" height="30.739px" viewBox="0 0 25.021 30.739" enable-background="new 0 0 25.021 30.739" xml:space="preserve">
<g>
	<path fill-rule="evenodd" clip-rule="evenodd" d="M3.947,0.017C9.656,0.086,15.64-0.121,21.176,0.122c0,9.099,0,18.197,0,27.296
		c1.062,0.276,3.738-0.552,3.84,0.415c0.079,0.748-0.746,0.508-1.453,0.519c-1.77,0.028-4.059-0.021-5.604,0
		c-0.286,0.579,0.069,1.799-0.208,2.388c-4.754-0.443-10.561-2.388-16.087-2.388c-0.519,0-1.593,0.224-1.661-0.415
		c-0.115-1.093,2.979-0.255,3.633-0.519C3.878,18.595,3.67,9.324,3.74,0.329C3.829,0.245,3.801,0.044,3.947,0.017z M17.854,2.508
		c0,8.303,0,16.605,0,24.909c0.762,0,1.523,0,2.284,0c0-8.822,0-17.645,0-26.466C16.713,1.02,13.011,0.813,9.759,1.055
		C12.459,1.538,15.254,1.925,17.854,2.508z M4.777,1.47c0.069,8.649-0.138,17.575,0.104,26.051c3.911,0.76,7.917,1.425,11.936,2.076
		c0-8.788,0-17.575,0-26.362c-3.934-0.702-7.95-1.322-11.832-2.076C4.839,1.186,4.867,1.386,4.777,1.47z"/>
	<path fill-rule="evenodd" clip-rule="evenodd" d="M14.118,13.821c2.178-0.276,1.715,3.324-0.311,2.803
		C12.762,16.354,12.493,14.028,14.118,13.821z M14.326,15.689c0.503-0.107,0.404-1.151-0.312-0.934
		C13.808,15.038,13.862,15.753,14.326,15.689z"/>
	<path fill-rule="evenodd" clip-rule="evenodd" fill="#FFFFFF" d="M14.014,14.755c0.716-0.218,0.814,0.826,0.312,0.934
		C13.862,15.753,13.808,15.038,14.014,14.755z"/>
</g>
</svg>
