<?xml version="1.0" encoding="utf-8"?>
<!-- Generator: Adobe Illustrator 15.1.0, SVG Export Plug-In . SVG Version: 6.00 Build 0)  -->
<!DOCTYPE svg PUBLIC "-//W3C//DTD SVG 1.1//EN" "http://www.w3.org/Graphics/SVG/1.1/DTD/svg11.dtd">
<svg version="1.1" id="Calque_1" xmlns="http://www.w3.org/2000/svg" xmlns:xlink="http://www.w3.org/1999/xlink" x="0px" y="0px"
	 width="68.545px" height="64.117px" viewBox="0 0 68.545 64.117" enable-background="new 0 0 68.545 64.117" xml:space="preserve">
<g>
	<path fill="none" stroke="#000000" stroke-miterlimit="10" d="M49.868,58.164c-10.332,3.834-21.801,3.834-32.133,0
		c-7.189-15.555-7.189-25.258,0-40.813c10.332-3.834,21.801-3.834,32.133,0C57.057,32.906,57.057,42.609,49.868,58.164z"/>
	<path fill="#FFFFFF" stroke="#000000" stroke-miterlimit="10" d="M53.481,26.271c0,2.558-2.072,4.631-4.63,4.631
		s-4.63-2.073-4.63-4.631"/>
	<path fill="#FFFFFF" stroke="#000000" stroke-miterlimit="10" d="M24.372,26.271c0,2.558,2.073,4.631,4.63,4.631
		c2.558,0,4.63-2.073,4.63-4.631"/>
	<path fill="#FFFFFF" d="M25.81,46.26c2.248,4.984,7.26,8.455,13.083,8.455c5.822,0,10.836-3.471,13.083-8.455H25.81z"/>
	<path fill="#010202" d="M38.893,55.092c-5.78,0-11.05-3.406-13.427-8.677l-0.24-0.533h27.335l-0.24,0.533
		C49.944,51.686,44.673,55.092,38.893,55.092z M26.408,46.637c2.361,4.696,7.198,7.7,12.485,7.7c5.287,0,10.123-3.004,12.485-7.7
		H26.408z"/>
	<line fill="#FFFFFF" x1="35.967" y1="26.271" x2="23.465" y2="26.271"/>
	<path fill="#010202" d="M35.967,26.647H23.465c-0.208,0-0.377-0.168-0.377-0.377c0-0.208,0.169-0.378,0.377-0.378h12.502
		c0.209,0,0.377,0.17,0.377,0.378C36.344,26.479,36.176,26.647,35.967,26.647z"/>
	<line fill="#FFFFFF" x1="54.75" y1="26.035" x2="42.249" y2="26.035"/>
	<path fill="#010202" d="M54.75,26.413H42.249c-0.209,0-0.377-0.169-0.377-0.378c0-0.208,0.168-0.378,0.377-0.378H54.75
		c0.208,0,0.377,0.17,0.377,0.378C55.126,26.244,54.958,26.413,54.75,26.413z"/>
	<path d="M26.756,26.15c0,1.24,1.005,2.245,2.246,2.245c1.24,0,2.245-1.005,2.245-2.245"/>
	<path fill="#010202" d="M30.285,52.268c-0.209,0-0.378-0.169-0.378-0.378v-5.63c0-0.209,0.169-0.378,0.378-0.378
		c0.208,0,0.377,0.169,0.377,0.378v5.63C30.662,52.099,30.493,52.268,30.285,52.268z"/>
	<path fill="#010202" d="M34.273,54.349c-0.208,0-0.378-0.169-0.378-0.378V46.26c0-0.209,0.17-0.378,0.378-0.378
		s0.377,0.169,0.377,0.378v7.711C34.65,54.18,34.481,54.349,34.273,54.349z"/>
	<path fill="#010202" d="M38.893,55.092c-0.209,0-0.377-0.169-0.377-0.377V46.26c0-0.209,0.168-0.378,0.377-0.378
		s0.378,0.169,0.378,0.378v8.455C39.271,54.923,39.102,55.092,38.893,55.092z"/>
	<path fill="#010202" d="M43.202,54.433c-0.209,0-0.377-0.169-0.377-0.377V46.26c0-0.209,0.168-0.378,0.377-0.378
		c0.208,0,0.377,0.169,0.377,0.378v7.796C43.579,54.264,43.41,54.433,43.202,54.433z"/>
	<path fill="#010202" d="M47.458,52.268c-0.208,0-0.378-0.169-0.378-0.378v-5.63c0-0.209,0.17-0.378,0.378-0.378
		c0.209,0,0.378,0.169,0.378,0.378v5.63C47.836,52.099,47.667,52.268,47.458,52.268z"/>
	<path fill="#010202" d="M38.928,42.087c-2.284,0-4.261-0.128-4.284-0.129c-0.208-0.013-0.365-0.193-0.352-0.401
		c0.014-0.209,0.193-0.366,0.401-0.352c0.025,0.001,2.65,0.17,5.333,0.116c4.96-0.1,5.54-0.869,5.605-1.022
		c0.063-0.146-0.085-0.399-0.405-0.694c-3.496-3.225-6.563-12.813-6.691-13.22c-0.063-0.199,0.048-0.411,0.246-0.474
		c0.199-0.063,0.412,0.047,0.474,0.245c0.032,0.099,3.135,9.805,6.484,12.893c0.595,0.549,0.792,1.069,0.587,1.548
		c-0.252,0.586-1.178,1.377-6.289,1.48C39.665,42.084,39.293,42.087,38.928,42.087z"/>
	<path fill="#010202" d="M51.096,26.15c0,1.24-1.006,2.245-2.245,2.245s-2.245-1.005-2.245-2.245"/>
	<path fill="#FFFFFF" stroke="#000000" stroke-miterlimit="10" d="M66.905,46.038c-7.239-11.736-6.99-22.48-6.67-24.758
		c0.318-2.278-1.664-5.665-1.664-5.665s-3.861-3.814-12.135-10.95c-8.273-7.135-31.521-2.94-31.521-2.94
		C11.034,9.256,1.551,17.271,1.551,17.271c-2.557,6.094,0.355,5.595,0.355,5.595c10.121,2.053,14.041-6.197,14.041-6.197
		c-1.123,3.809-5.322,6.272-5.322,6.272C5.56,24.439,6.069,36.929,6.069,36.929s-0.516,8.368-1.552,9.361
		c-1.038,0.993-2.069,3.103-2.069,3.103S-4.745,66.06,10.542,62.29c15.288-3.77,22.989-0.6,22.989-0.6s8.588,3.74,11.173,0.798
		c2.585-2.944,14.421-4.734,20.128-7.183S66.905,46.038,66.905,46.038z M53.079,55.854c-14.701-1.035-14.485,4.403-14.485,4.403
		s-2.479-5.118-12.961-2.927c-8.925,1.865-8.638-1.29-8.317-2.994c-0.137-0.878,0.18-1.798,0.203-2.232
		c0.064-1.178,7.239-15.09,8.266-21.987c1.027-6.897,0.455-18.21,14.38-11.296c0,0,2.229,1.269,4.748,0.158
		c2.501-1.104,7.985-3.318,7.162,3.536c0.014,0.483-0.014,1.029-0.096,1.65v0.007c0.072,7.011,5.971,16.693,6.357,17.172
		c0.253,0.315,3.768,5.516,3.07,9.258C61.61,53.654,59.933,56.338,53.079,55.854z"/>
	<path fill="#28348A" d="M51.979,24.172v-0.007c0.082-0.621,0.109-1.167,0.096-1.65c-0.005,0.049-0.008,0.094-0.015,0.143
		C51.997,23.145,51.973,23.65,51.979,24.172z"/>
	<path fill="#020202" d="M25.81,15.47c-0.062,0-0.124-0.019-0.179-0.058c-0.134-0.1-0.163-0.287-0.064-0.422
		c0.037-0.053,0.945-1.271,2.851-1.975c1.738-0.643,4.673-0.958,8.788,1.191c0.148,0.077,0.205,0.26,0.128,0.407
		s-0.259,0.206-0.407,0.128c-7.459-3.896-10.839,0.559-10.872,0.604C25.995,15.427,25.903,15.47,25.81,15.47z"/>
	<path fill="#020202" d="M53.481,15.92c-0.146,0-0.273-0.106-0.298-0.255c-0.101-0.637-0.396-1.083-0.905-1.362
		c-2.045-1.128-6.617,0.817-6.662,0.837c-0.154,0.065-0.331-0.005-0.397-0.158c-0.065-0.152,0.005-0.33,0.158-0.396
		c0.199-0.086,4.893-2.081,7.193-0.812c0.673,0.371,1.08,0.976,1.21,1.796c0.025,0.166-0.086,0.32-0.252,0.347
		C53.512,15.918,53.497,15.92,53.481,15.92z"/>
</g>
</svg>
